<svg xmlns="http://www.w3.org/2000/svg" width="92" height="40" viewBox="0 0 92 40" fill="none">
  <path d="M73.177 29.8704V24.937L86.8659 20.4482V19.737L73.177 15.2482V10.3148L91.8437 16.937V23.2482L73.177 29.8704Z" fill="black"/>
  <path d="M54.9291 36.2704C51.1365 36.2704 48.1143 35.2037 45.8624 33.0704C43.6105 30.9074 42.4846 27.8111 42.4846 23.7815V16.4037C42.4846 12.3741 43.6105 9.29257 45.8624 7.15924C48.1143 4.99628 51.1365 3.91479 54.9291 3.91479C58.7217 3.91479 61.6402 4.95183 63.6846 7.02591C65.7587 9.09998 66.7957 11.9444 66.7957 15.5592V15.8259H61.5513V15.4259C61.5513 13.4704 61.0031 11.8704 59.9068 10.6259C58.8402 9.35183 57.1809 8.7148 54.9291 8.7148C52.7365 8.7148 51.0031 9.39628 49.7291 10.7592C48.4846 12.0926 47.8624 13.9444 47.8624 16.3148V23.8703C47.8624 26.2111 48.4846 28.0629 49.7291 29.4259C51.0031 30.7889 52.7365 31.4704 54.9291 31.4704C57.1809 31.4704 58.8402 30.8481 59.9068 29.6037C61.0031 28.3296 61.5513 26.7148 61.5513 24.7592V24.0037H66.7957V24.6259C66.7957 28.2407 65.7587 31.0852 63.6846 33.1592C61.6402 35.2333 58.7217 36.2704 54.9291 36.2704Z" fill="#F89A56"/>
  <path d="M22.583 40L35.6497 0H40.7163L27.6497 40H22.583Z" fill="black"/>
  <path d="M18.6667 29.8704L0 23.2482V16.937L18.6667 10.3148V15.2482L4.97778 19.737V20.4482L18.6667 24.937V29.8704Z" fill="black"/>
</svg>