<svg width="20" height="21" viewBox="0 0 20 21" fill="none" xmlns="http://www.w3.org/2000/svg">
<path d="M19.4274 1.0783C18.9274 0.567299 18.1874 0.378299 17.4974 0.578299L1.40742 5.2273C0.67942 5.4293 0.16342 6.0063 0.0244202 6.7383C-0.11758 7.4843 0.37842 8.4323 1.02642 8.8283L6.05742 11.9003C6.57342 12.2163 7.23942 12.1373 7.66642 11.7093L13.4274 5.9483C13.7174 5.6473 14.1974 5.6473 14.4874 5.9483C14.7774 6.2373 14.7774 6.7083 14.4874 7.0083L8.71642 12.7693C8.28842 13.1973 8.20842 13.8613 8.52342 14.3783L11.5974 19.4283C11.9574 20.0273 12.5774 20.3683 13.2574 20.3683C13.3374 20.3683 13.4274 20.3683 13.5074 20.3573C14.2874 20.2583 14.9074 19.7273 15.1374 18.9773L19.9074 3.0083C20.1174 2.3283 19.9274 1.5883 19.4274 1.0783Z" fill="white"/>
<path opacity="0.4" fill-rule="evenodd" clip-rule="evenodd" d="M1.01052 15.3077C0.818523 15.3077 0.626523 15.2347 0.480523 15.0877C0.187523 14.7947 0.187523 14.3207 0.480523 14.0277L1.84552 12.6617C2.13852 12.3697 2.61352 12.3697 2.90652 12.6617C3.19852 12.9547 3.19852 13.4297 2.90652 13.7227L1.54052 15.0877C1.39452 15.2347 1.20252 15.3077 1.01052 15.3077ZM4.77172 16.5001C4.57972 16.5001 4.38772 16.4271 4.24172 16.2801C3.94872 15.9871 3.94872 15.5131 4.24172 15.2201L5.60672 13.8541C5.89972 13.5621 6.37472 13.5621 6.66772 13.8541C6.95972 14.1471 6.95972 14.6221 6.66772 14.9151L5.30172 16.2801C5.15572 16.4271 4.96372 16.5001 4.77172 16.5001ZM5.02542 20.0681C5.17142 20.2151 5.36342 20.2881 5.55542 20.2881C5.74742 20.2881 5.93942 20.2151 6.08542 20.0681L7.45142 18.7031C7.74342 18.4101 7.74342 17.9351 7.45142 17.6421C7.15842 17.3501 6.68342 17.3501 6.39042 17.6421L5.02542 19.0081C4.73242 19.3011 4.73242 19.7751 5.02542 20.0681Z" fill="white"/>
</svg>
